<svg width="78" height="97" viewBox="0 0 78 97" fill="none" xmlns="http://www.w3.org/2000/svg">
<path d="M69.5893 81.6393L43.2972 90.8224L37.7924 88.1676L29.841 84.3328L22.163 78.3681L19.1764 71.2734L16.3048 61.5955L16.2398 57.0407L18.168 53.8241L20.4346 53.0325L23.6078 51.9242L15.2163 27.8986L15.3096 23.7971L17.7129 21.9405L20.4327 20.9905L23.016 21.1055L26.2325 23.0338L30.9824 36.6331L35.6522 33.9849L39.5953 33.6249L42.9702 36.0064L45.0784 34.7615L49.7699 33.6315L52.3748 35.2647L54.2314 37.668L57.4046 36.5597L61.3694 37.7179L65.3993 43.431L71.2574 60.2036L71.9058 73.7096L69.5893 81.6393Z" fill="white"/>
<path d="M54.2716 37.8036C59.5955 34.9065 62.4311 37.3084 64.4322 42.0338C66.4333 46.7592 67.4663 49.3478 69.5963 55.4463C74.7354 70.1601 69.415 81.4955 69.415 81.4955" fill="white"/>
<path d="M54.2716 37.8036C59.5955 34.9065 62.4311 37.3084 64.4322 42.0338C66.4333 46.7592 67.4663 49.3478 69.5963 55.4463C74.7354 70.1601 69.415 81.4955 69.415 81.4955" stroke="black" stroke-width="1.92067" stroke-miterlimit="10"/>
<path d="M58.3248 49.4096L54.8475 39.4536C53.3768 35.243 51.4234 32.8945 47.4788 33.8747C44.1411 34.7041 42.983 36.5211 42.983 36.5211" fill="white"/>
<path d="M58.3248 49.4096L54.8475 39.4536C53.3768 35.243 51.4234 32.8945 47.4788 33.8747C44.1411 34.7041 42.983 36.5211 42.983 36.5211" stroke="black" stroke-width="1.92067" stroke-miterlimit="10"/>
<path d="M23.3135 52.3582C22.6542 52.3895 20.8775 52.8273 19.6338 53.2616C16.8186 54.2449 15.4622 57.1578 16.3915 61.1965C16.3915 61.1965 17.2419 65.4274 19.0009 70.7476C21.2848 77.6557 23.6033 80.2719 27.7786 83.2409C33.5103 87.3166 43.6352 90.7042 43.6352 90.7042" fill="white"/>
<path d="M23.3135 52.3582C22.6542 52.3895 20.8775 52.8273 19.6338 53.2616C16.8186 54.2449 15.4622 57.1578 16.3915 61.1965C16.3915 61.1965 17.2419 65.4274 19.0009 70.7476C21.2848 77.6557 23.6033 80.2719 27.7786 83.2409C33.5103 87.3166 43.6352 90.7042 43.6352 90.7042" stroke="black" stroke-width="1.92067" stroke-miterlimit="10"/>
<path d="M47.9454 49.2032L44.7218 39.9738C43.2512 35.7632 40.7638 32.3884 36.323 33.9395C32.5535 35.2561 31.0508 36.8571 31.0508 36.8571" fill="white"/>
<path d="M47.9454 49.2032L44.7218 39.9738C43.2512 35.7632 40.7638 32.3884 36.323 33.9395C32.5535 35.2561 31.0508 36.8571 31.0508 36.8571" stroke="black" stroke-width="1.92067" stroke-miterlimit="10"/>
<path d="M36.3568 52.0959L26.6849 24.4042C25.6176 21.3487 23.349 19.8629 19.2941 21.2791C15.2391 22.6954 14.3889 25.2705 15.4561 28.3261L29.7849 69.3511" fill="white"/>
<path d="M36.3568 52.0959L26.6849 24.4042C25.6176 21.3487 23.349 19.8629 19.2941 21.2791C15.2391 22.6954 14.3889 25.2705 15.4561 28.3261L29.7849 69.3511" stroke="black" stroke-width="1.92067" stroke-miterlimit="10"/>
</svg>
