<svg width="245" height="81" viewBox="0 0 245 81" fill="none" xmlns="http://www.w3.org/2000/svg">
<g clip-path="url(#clip0_6_5826)">
<path d="M181.131 13.9153C176.593 16.541 172.988 20.2255 170.317 24.8417C167.645 29.5002 166.33 34.794 166.33 40.5961C166.33 46.3981 167.687 51.6919 170.317 56.3504C172.988 61.009 176.593 64.6935 181.131 67.2768C185.669 69.9026 190.758 71.2154 196.314 71.2154C201.784 71.2154 206.831 69.9026 211.369 67.3615C202.251 70.4955 194.278 67.9968 193.387 67.658C192.2 67.1921 191.012 66.5992 189.867 65.964C185.499 63.4653 182.064 59.9502 179.519 55.4611C176.975 50.9719 175.703 45.9746 175.703 40.5537C175.703 35.1328 176.975 30.1355 179.519 25.6463C182.064 21.1572 185.499 17.6421 189.867 15.1434C191.267 14.3388 192.751 13.6612 194.236 13.1106C197.035 12.1789 203.735 10.6543 211.411 13.7882C206.874 11.2048 201.784 9.93433 196.314 9.93433C190.758 9.93433 185.669 11.2472 181.131 13.8729V13.9153Z" fill="white"/>
<path d="M239.614 20.3948C236.009 14.2964 231.089 9.46843 224.897 5.91099C218.663 2.39591 211.835 0.617188 204.414 0.617188C199.367 0.617188 194.575 1.42185 190.164 3.03116C192.157 2.73471 194.235 2.56531 196.356 2.56531C203.226 2.56531 209.588 4.21698 215.313 7.52031C221.038 10.8236 225.618 15.3975 228.926 21.1995C232.234 27.0015 233.888 33.5235 233.888 40.6384C233.888 47.7532 232.192 54.2752 228.926 60.0772C225.618 65.8792 221.038 70.4954 215.313 73.7564C209.588 77.0174 203.226 78.7114 196.356 78.7114C194.235 78.7114 192.2 78.542 190.164 78.2456C194.617 79.8549 199.367 80.6595 204.414 80.6595C211.835 80.6595 218.663 78.8808 224.897 75.3657C231.132 71.8083 236.051 67.0227 239.614 60.8819C243.218 54.7834 245 48.0073 245 40.6384C245 33.2694 243.218 26.5357 239.614 20.3948Z" fill="white"/>
<path d="M32.0616 3.11584L0 77.3562H11.7474L42.8337 3.11584H32.0616Z" fill="white"/>
<path d="M63.5716 42.0783L48.813 8.0285L43.0029 21.8771L51.6545 42.0783H63.5716Z" fill="white"/>
<path d="M66.7522 49.4472H25.4453L29.1349 57.9173H58.3975L66.6674 77.3562H78.8389L66.7522 49.4472Z" fill="white"/>
<path d="M154.54 39.876C153.734 43.8146 152.293 47.4991 150.342 50.9295C147.161 56.6044 142.75 61.0936 137.237 64.3122C131.724 67.5309 125.574 69.1402 118.916 69.1402C112.258 69.1402 106.108 67.4885 100.638 64.3122C95.1668 61.0936 90.7986 56.6044 87.6179 50.9295C84.4372 45.2969 82.8257 38.9443 82.8257 31.9988C82.8257 28.2296 83.2922 24.6299 84.2676 21.2418C80.9596 27.0015 79.3057 33.3117 79.3057 40.2148C79.3057 47.1179 81.0445 53.767 84.522 59.6537C87.9996 65.5404 92.7071 70.1566 98.5596 73.5446C104.412 76.9327 110.901 78.6267 118.026 78.6267C122.903 78.6267 127.441 77.822 131.554 76.1704C135.71 74.561 139.146 72.4859 141.86 70.0295C143.174 68.8437 144.319 67.6579 145.295 66.4298L147.5 77.3562H154.498V39.876H154.54Z" fill="white"/>
<path d="M94.3188 25.7734C96.7786 21.4536 100.044 18.108 104.2 15.7363C108.356 13.3647 112.979 12.1789 118.068 12.1789C124.175 12.1789 129.222 13.5341 133.124 16.2869C137.025 18.9973 139.867 22.3854 141.605 26.4086H153.141C153.141 26.4086 153.141 26.2392 153.056 26.1545C150.003 14.4235 140.036 5.31812 127.483 2.8618C125.151 2.39594 122.776 2.09949 120.273 2.09949C118.153 2.09949 116.117 2.26889 114.124 2.65004C106.024 4.04761 99.1535 8.70616 94.9549 15.2281C94.6581 15.694 94.3612 16.1598 94.0643 16.668C91.5198 21.1995 90.2051 26.4086 90.2051 32.0413C90.2051 34.0317 90.3747 35.9798 90.714 37.8856C91.0109 33.4812 92.1983 29.4579 94.2764 25.8157L94.3188 25.7734Z" fill="white"/>
<path d="M116.923 49.4473H142.623C143.047 48.7697 143.514 48.1344 143.895 47.4145C145.21 45.0852 146.185 42.5442 146.822 39.8761H116.923V49.4473Z" fill="white"/>
</g>
<defs>
<clipPath id="clip0_6_5826">
<rect width="245" height="80" fill="white" transform="translate(0 0.617188)"/>
</clipPath>
</defs>
</svg>
