<svg width="288" height="278" viewBox="0 0 288 278" fill="none" xmlns="http://www.w3.org/2000/svg">
<path d="M168.589 174.639L142.297 183.822L136.792 181.168L128.841 177.333L121.163 171.368L118.176 164.273L115.305 154.596L115.24 150.041L117.168 146.824L119.435 146.033L122.608 144.924L114.216 120.899L114.31 116.797L116.713 114.941L119.433 113.991L122.016 114.106L125.232 116.034L129.982 129.633L134.652 126.985L138.595 126.625L141.97 129.006L144.078 127.762L148.77 126.632L151.375 128.265L153.231 130.668L156.405 129.56L160.369 130.718L164.399 136.431L170.257 153.204L170.906 166.71L168.589 174.639Z" fill="white"/>
<path d="M153.272 130.804C158.595 127.907 161.431 130.308 163.432 135.034C165.433 139.759 166.466 142.348 168.596 148.446C173.735 163.16 168.415 174.496 168.415 174.496" fill="white"/>
<path d="M153.272 130.804C158.595 127.907 161.431 130.308 163.432 135.034C165.433 139.759 166.466 142.348 168.596 148.446C173.735 163.16 168.415 174.496 168.415 174.496" stroke="black" stroke-width="1.92067" stroke-miterlimit="10"/>
<path d="M157.325 142.41L153.847 132.454C152.377 128.243 150.423 125.895 146.479 126.875C143.141 127.704 141.983 129.521 141.983 129.521" fill="white"/>
<path d="M157.325 142.41L153.847 132.454C152.377 128.243 150.423 125.895 146.479 126.875C143.141 127.704 141.983 129.521 141.983 129.521" stroke="black" stroke-width="1.92067" stroke-miterlimit="10"/>
<path d="M122.314 145.358C121.654 145.39 119.878 145.827 118.634 146.262C115.819 147.245 114.462 150.158 115.391 154.197C115.391 154.197 116.242 158.427 118.001 163.748C120.285 170.656 122.603 173.272 126.779 176.241C132.51 180.317 142.635 183.704 142.635 183.704" fill="white"/>
<path d="M122.314 145.358C121.654 145.39 119.878 145.827 118.634 146.262C115.819 147.245 114.462 150.158 115.391 154.197C115.391 154.197 116.242 158.427 118.001 163.748C120.285 170.656 122.603 173.272 126.779 176.241C132.51 180.317 142.635 183.704 142.635 183.704" stroke="black" stroke-width="1.92067" stroke-miterlimit="10"/>
<path d="M146.945 142.203L143.722 132.974C142.251 128.763 139.764 125.389 135.323 126.94C131.554 128.256 130.051 129.857 130.051 129.857" fill="white"/>
<path d="M146.945 142.203L143.722 132.974C142.251 128.763 139.764 125.389 135.323 126.94C131.554 128.256 130.051 129.857 130.051 129.857" stroke="black" stroke-width="1.92067" stroke-miterlimit="10"/>
<path d="M135.357 145.096L125.685 117.404C124.618 114.349 122.349 112.863 118.294 114.279C114.239 115.695 113.389 118.271 114.456 121.326L128.785 162.351" fill="white"/>
<path d="M135.357 145.096L125.685 117.404C124.618 114.349 122.349 112.863 118.294 114.279C114.239 115.695 113.389 118.271 114.456 121.326L128.785 162.351" stroke="black" stroke-width="1.92067" stroke-miterlimit="10"/>
<path d="M75.8861 178.864L53.6106 189.112L57.1549 196.816L53.9935 198.271L45.3667 179.52L48.5282 178.065L52.0725 185.769L74.348 175.521L75.8861 178.864Z" fill="white"/>
<path d="M69.1004 149.292C69.1495 151.638 68.5687 153.838 67.358 155.89C66.1206 157.943 64.4081 159.592 62.2203 160.839C60.0325 162.085 57.6056 162.735 54.9395 162.791C52.2734 162.847 49.8214 162.298 47.5835 161.145C45.3456 159.991 43.5789 158.414 42.2835 156.414C40.9614 154.415 40.2758 152.242 40.2267 149.896C40.1777 147.55 40.7718 145.35 42.0092 143.297C43.2199 141.245 44.9191 139.596 47.1069 138.35C49.2946 137.104 51.7215 136.453 54.3876 136.397C57.0537 136.341 59.5057 136.89 61.7437 138.043C63.9816 139.197 65.7616 140.773 67.0837 142.773C68.3791 144.773 69.0514 146.946 69.1004 149.292ZM65.6212 149.365C65.5861 147.685 65.0866 146.122 64.1228 144.675C63.159 143.228 61.8284 142.096 60.1309 141.278C58.4329 140.433 56.5441 140.033 54.4646 140.076C52.385 140.12 50.5146 140.599 48.8534 141.514C47.1916 142.402 45.9095 143.589 45.007 145.075C44.1045 146.561 43.6709 148.144 43.706 149.823C43.7411 151.503 44.2405 153.066 45.2043 154.513C46.1681 155.96 47.499 157.105 49.1971 157.95C50.8945 158.768 52.783 159.155 54.8626 159.112C56.9421 159.068 58.8128 158.603 60.4746 157.714C62.1358 156.799 63.4177 155.599 64.3202 154.113C65.2226 152.627 65.6563 151.045 65.6212 149.365Z" fill="white"/>
<path d="M75.2386 118.932C74.3844 120.799 73.2177 122.259 71.7386 123.313C70.2353 124.355 68.561 124.938 66.7157 125.061C64.8815 125.161 63.0429 124.789 61.2 123.945L45.05 116.556L46.5811 113.21L62.731 120.599C64.0405 121.198 65.3088 121.47 66.536 121.416C67.739 121.351 68.8245 120.997 69.7928 120.355C70.7478 119.677 71.5083 118.72 72.0741 117.484C72.9173 115.641 73 113.89 72.3221 112.231C71.62 110.56 70.2869 109.276 68.3227 108.377L52.1727 100.988L53.7038 97.642L69.8537 105.031C71.6967 105.874 73.1747 107.034 74.2878 108.511C75.4008 109.988 76.0544 111.636 76.2486 113.455C76.4296 115.239 76.0929 117.064 75.2386 118.932Z" fill="white"/>
<path d="M94.3782 93.7448C92.5808 95.2535 90.5031 96.1794 88.145 96.5225C85.7698 96.8451 83.4111 96.5445 81.069 95.6208C78.7269 94.6971 76.6986 93.214 74.9841 91.1715C73.2696 89.1291 72.1604 86.8745 71.6565 84.4077C71.1526 81.9409 71.2738 79.5761 72.0203 77.3131C72.7496 75.0297 74.0129 73.1337 75.8103 71.6249C77.3217 70.3562 79.0021 69.5376 80.8513 69.169C82.6834 68.78 84.517 68.8076 86.3521 69.2517C88.2076 69.6787 89.8903 70.4597 91.4001 71.5947L88.5202 74.0121C87.4627 73.333 86.3309 72.8556 85.1246 72.58C83.9184 72.3043 82.6978 72.3019 81.4627 72.5726C80.2481 72.8262 79.1098 73.3988 78.0477 74.2903C76.761 75.3704 75.8559 76.7394 75.3327 78.3972C74.8094 80.0551 74.7508 81.8103 75.1569 83.6628C75.5834 85.4982 76.4654 87.2124 77.8027 88.8055C79.14 90.3987 80.6755 91.5643 82.4092 92.3024C84.1633 93.0234 85.9021 93.2698 87.6255 93.0417C89.349 92.8136 90.854 92.1595 92.1408 91.0794C93.7339 89.7421 94.6876 88.1407 95.0019 86.2754C95.3366 84.3929 95.1387 82.5396 94.4083 80.7155L97.2882 78.2981C98.1273 79.9613 98.5963 81.7436 98.6953 83.645C98.8147 85.5293 98.5123 87.3673 97.7881 89.159C97.0671 90.9132 95.9305 92.4418 94.3782 93.7448Z" fill="white"/>
<path d="M127.752 77.7369L120.691 50.6419L124.252 49.7139L131.313 76.8089L127.752 77.7369ZM111.07 82.0846L104.008 54.9896L107.57 54.0616L114.631 81.1566L111.07 82.0846ZM110.805 69.174L109.928 65.8065L124.365 62.0439L125.243 65.4114L110.805 69.174Z" fill="white"/>
<path d="M160.998 80.5371L169.19 57.426L161.197 54.5929L162.36 51.3128L181.814 58.2087L180.651 61.4887L172.658 58.6555L164.466 81.7666L160.998 80.5371Z" fill="white"/>
<path d="M186.922 96.2997C185.207 94.6985 184.036 92.7483 183.409 90.4492C182.801 88.1306 182.814 85.7529 183.447 83.3161C184.08 80.8792 185.306 78.6861 187.125 76.7366C188.945 74.7872 191.048 73.4128 193.436 72.6136C195.823 71.8143 198.185 71.648 200.522 72.1146C202.877 72.5617 204.912 73.5859 206.628 75.1871C208.343 76.7883 209.505 78.7482 210.114 81.0668C210.74 83.3659 210.737 85.7338 210.104 88.1707C209.471 90.6075 208.244 92.8007 206.425 94.7501C204.605 96.6996 202.502 98.0739 200.114 98.8732C197.727 99.6724 195.356 99.8485 193.001 99.4014C190.664 98.9348 188.638 97.9009 186.922 96.2997ZM189.297 93.7556C190.525 94.9019 191.994 95.6343 193.703 95.9528C195.412 96.2712 197.151 96.1075 198.921 95.4616C200.711 94.8339 202.315 93.7597 203.735 92.2392C205.154 90.7186 206.115 89.044 206.618 87.2154C207.141 85.405 207.184 83.6582 206.749 81.9752C206.313 80.2921 205.482 78.8774 204.253 77.7311C203.025 76.5848 201.557 75.8524 199.848 75.534C198.139 75.2156 196.389 75.3702 194.6 75.9979C192.83 76.6438 191.235 77.727 189.816 79.2476C188.396 80.7682 187.425 82.4337 186.903 84.2441C186.4 86.0727 186.366 87.8285 186.802 89.5116C187.237 91.1946 188.069 92.6093 189.297 93.7556Z" fill="white"/>
<path d="M207.833 133.336C207.438 131.43 207.46 129.696 207.899 128.134C208.338 126.573 209.129 125.265 210.272 124.211C211.415 123.157 212.811 122.404 214.461 121.954L215.208 125.557C214.127 125.863 213.234 126.347 212.527 127.011C211.852 127.696 211.382 128.515 211.117 129.469C210.877 130.417 210.882 131.492 211.131 132.693C211.38 133.894 211.772 134.861 212.305 135.595C212.844 136.355 213.483 136.876 214.222 137.158C214.962 137.441 215.736 137.498 216.545 137.33C217.538 137.125 218.288 136.67 218.795 135.965C219.334 135.282 219.7 134.484 219.892 133.573C220.116 132.682 220.327 131.467 220.526 129.928C220.738 128.06 221.004 126.52 221.325 125.31C221.646 124.1 222.224 123.013 223.059 122.05C223.921 121.082 225.161 120.43 226.78 120.094C228.216 119.796 229.566 119.871 230.829 120.317C232.098 120.789 233.194 121.61 234.118 122.781C235.041 123.951 235.687 125.424 236.055 127.199C236.423 128.975 236.38 130.604 235.925 132.088C235.47 133.571 234.678 134.811 233.55 135.807C232.428 136.829 231.078 137.545 229.502 137.953L228.755 134.35C229.762 134.087 230.596 133.642 231.256 133.015C231.947 132.408 232.418 131.657 232.668 130.761C232.949 129.886 232.982 128.926 232.765 127.881C232.549 126.837 232.176 125.961 231.648 125.253C231.126 124.572 230.511 124.1 229.803 123.838C229.095 123.577 228.336 123.53 227.527 123.698C226.587 123.892 225.871 124.313 225.378 124.96C224.891 125.633 224.546 126.399 224.343 127.258C224.172 128.138 224 129.344 223.827 130.878C223.616 132.747 223.352 134.299 223.036 135.536C222.747 136.767 222.148 137.885 221.24 138.89C220.358 139.89 219.068 140.566 217.371 140.918C215.882 141.226 214.491 141.147 213.196 140.68C211.901 140.213 210.783 139.356 209.844 138.107C208.904 136.858 208.234 135.268 207.833 133.336Z" fill="white"/>
<path d="M209.155 157.02L233.363 160.916L234.711 152.544L238.146 153.097L234.867 173.475L231.431 172.922L232.779 164.55L208.57 160.654L209.155 157.02Z" fill="white"/>
<path d="M206.181 173.072L224.843 196.465L223.043 199.49L193.581 194.247L195.586 190.878L204.167 192.493L205.086 192.668L221.191 195.642L220.659 196.535L210.364 183.8L209.771 183.075L204.258 176.304L206.181 173.072ZM209.297 180.977L211.544 183.85L205.592 193.853L201.995 193.249L209.297 180.977Z" fill="white"/>
<path d="M188.54 198.926L205.194 221.435L196.962 227.526C195.59 228.541 194.135 229.153 192.598 229.361C191.06 229.57 189.592 229.379 188.194 228.789C186.811 228.22 185.659 227.313 184.739 226.07C183.803 224.805 183.295 223.423 183.214 221.924C183.133 220.425 183.458 218.957 184.187 217.522C184.916 216.087 185.999 214.838 187.436 213.775L192.838 209.778L194.86 212.512L189.072 216.794C188.236 217.413 187.623 218.131 187.234 218.95C186.844 219.769 186.682 220.603 186.745 221.451C186.825 222.321 187.134 223.12 187.674 223.849C188.245 224.621 188.942 225.183 189.767 225.535C190.591 225.887 191.452 225.996 192.349 225.864C193.246 225.731 194.112 225.355 194.948 224.737L200.19 220.859L193.433 211.726L193.195 211.405L185.582 201.115L188.54 198.926ZM176.096 208.133L188.987 213.921L185.771 216.3L172.655 210.679L176.096 208.133Z" fill="white"/>
<path d="M159.136 215.372L165.434 239.069L173.63 236.891L174.524 240.254L154.576 245.556L153.682 242.193L161.878 240.015L155.58 216.317L159.136 215.372Z" fill="white"/>
</svg>
