<svg width="284" height="273" viewBox="0 0 284 273" fill="none" xmlns="http://www.w3.org/2000/svg">
<path d="M74.3733 183.287L54.8596 194.182L58.6273 200.93L55.8578 202.476L46.6874 186.05L49.4568 184.504L53.2246 191.253L72.7382 180.359L74.3733 183.287Z" fill="white"/>
<path d="M65.391 157.001C65.7196 159.115 65.4613 161.172 64.6163 163.173C63.7473 165.177 62.4 166.875 60.5747 168.265C58.7493 169.656 56.6357 170.538 54.234 170.912C51.8324 171.285 49.5508 171.086 47.3894 170.315C45.228 169.544 43.441 168.334 42.0284 166.684C40.5918 165.038 39.7093 163.158 39.3807 161.045C39.0521 158.931 39.3224 156.872 40.1914 154.868C41.0364 152.867 42.3717 151.171 44.197 149.781C46.0224 148.39 48.136 147.508 50.5377 147.135C52.9394 146.761 55.2209 146.96 57.3823 147.731C59.5438 148.502 61.3427 149.71 62.7793 151.356C64.1919 153.006 65.0624 154.888 65.391 157.001ZM62.2568 157.489C62.0216 155.976 61.381 154.624 60.335 153.434C59.2891 152.243 57.9499 151.382 56.3173 150.848C54.681 150.291 52.9262 150.158 51.0529 150.449C49.1796 150.74 47.548 151.4 46.1582 152.428C44.7646 153.431 43.7502 154.659 43.1149 156.111C42.4797 157.562 42.2797 159.045 42.5149 160.558C42.7501 162.071 43.3907 163.422 44.4367 164.613C45.4826 165.803 46.8237 166.677 48.46 167.234C50.0925 167.767 51.8455 167.888 53.7188 167.597C55.5921 167.306 57.2256 166.658 58.6192 165.655C60.009 164.627 61.0215 163.387 61.6568 161.936C62.292 160.484 62.492 159.002 62.2568 157.489Z" fill="white"/>
<path d="M66.4252 128.64C65.9893 130.46 65.2025 131.971 64.0648 133.173C62.9035 134.369 61.5085 135.185 59.8799 135.62C58.2568 136.031 56.5471 136.021 54.7507 135.591L39.0086 131.82L39.7898 128.558L55.532 132.329C56.8084 132.635 57.9906 132.655 59.0786 132.391C60.143 132.121 61.0517 131.614 61.8048 130.87C62.54 130.096 63.0519 129.107 63.3406 127.901C63.7709 126.105 63.5371 124.524 62.6393 123.159C61.7179 121.789 60.2999 120.875 58.3853 120.416L42.6432 116.645L43.4244 113.384L59.1666 117.154C60.963 117.584 62.4887 118.362 63.7437 119.488C64.9988 120.613 65.8729 121.972 66.3662 123.565C66.8415 125.128 66.8612 126.82 66.4252 128.64Z" fill="white"/>
<path d="M78.403 102.247C77.1625 103.989 75.5414 105.282 73.5394 106.124C71.5177 106.952 69.368 107.227 67.0902 106.948C64.8125 106.669 62.6836 105.825 60.7036 104.415C58.7235 103.006 57.2289 101.27 56.2198 99.2092C55.2107 97.1482 54.7765 95.0341 54.9172 92.8667C55.0381 90.6853 55.7187 88.7234 56.9592 86.9809C58.0023 85.5157 59.2974 84.4089 60.8446 83.6605C62.372 82.8981 63.996 82.5028 65.7166 82.4747C67.4514 82.4267 69.1146 82.7306 70.7064 83.3865L68.7189 86.1783C67.6305 85.8212 66.5227 85.6591 65.3954 85.6919C64.2681 85.7248 63.1906 86.002 62.163 86.5235C61.1494 87.0252 60.2761 87.7908 59.5431 88.8205C58.6551 90.0679 58.1699 91.4828 58.0877 93.0652C58.0054 94.6475 58.3554 96.2095 59.1376 97.7509C59.934 99.2726 61.1044 100.583 62.6488 101.683C64.1932 102.782 65.8147 103.459 67.5132 103.714C69.2258 103.948 70.8162 103.768 72.2845 103.172C73.7528 102.576 74.931 101.655 75.819 100.407C76.9185 98.863 77.3935 97.2319 77.2438 95.5143C77.1083 93.7769 76.5096 92.1871 75.4478 90.7449L77.4354 87.9531C78.5562 89.2284 79.3779 90.6935 79.9004 92.3484C80.437 93.9835 80.5908 95.6743 80.3619 97.4208C80.1273 99.1334 79.4743 100.742 78.403 102.247Z" fill="white"/>
<path d="M103.516 79.4739L89.7757 57.9678L92.6022 56.162L106.343 77.668L103.516 79.4739ZM90.2745 87.9339L76.5342 66.4279L79.3607 64.622L93.101 86.1281L90.2745 87.9339ZM86.4152 76.8148L84.7074 74.1419L96.1671 66.8203L97.8748 69.4932L86.4152 76.8148Z" fill="white"/>
<path d="M132.911 71.1702L131.721 48.853L124.003 49.2646L123.834 46.0972L142.62 45.0956L142.789 48.2629L135.071 48.6745L136.261 70.9916L132.911 71.1702Z" fill="white"/>
<path d="M160.467 74.6776C158.425 74.042 156.691 72.9044 155.267 71.2648C153.85 69.602 152.919 67.6449 152.474 65.3937C152.029 63.1425 152.168 60.8565 152.89 58.5357C153.612 56.2149 154.795 54.2539 156.439 52.6527C158.083 51.0515 159.956 49.9799 162.059 49.438C164.17 48.8729 166.246 48.9081 168.288 49.5437C170.331 50.1792 172.06 51.3284 173.477 52.9913C174.902 54.6309 175.836 56.5763 176.281 58.8276C176.726 61.0788 176.588 63.3648 175.865 65.6855C175.143 68.0063 173.96 69.9673 172.316 71.5686C170.673 73.1698 168.796 74.253 166.685 74.8181C164.582 75.3599 162.509 75.3131 160.467 74.6776ZM161.409 71.649C162.871 72.104 164.367 72.1239 165.896 71.7089C167.425 71.2938 168.789 70.4708 169.986 69.2398C171.207 68.0161 172.099 66.4991 172.663 64.6889C173.226 62.8787 173.352 61.1234 173.041 59.423C172.754 57.7298 172.098 56.2785 171.074 55.069C170.051 53.8595 168.808 53.0273 167.346 52.5723C165.884 52.1173 164.388 52.0973 162.859 52.5124C161.33 52.9274 159.955 53.7468 158.734 54.9706C157.536 56.2016 156.656 57.7222 156.092 59.5324C155.529 61.3426 155.391 63.0942 155.679 64.7874C155.99 66.4878 156.657 67.9428 157.681 69.1523C158.704 70.3617 159.947 71.194 161.409 71.649Z" fill="white"/>
<path d="M188.792 89.7965L207.891 72.8688L214.082 79.8535C215.114 81.0176 215.786 82.2892 216.099 83.6682C216.412 85.0473 216.356 86.3955 215.933 87.713C215.527 89.0143 214.797 90.1325 213.742 91.0676C212.669 92.0187 211.455 92.5912 210.1 92.7851C208.745 92.9789 207.387 92.8024 206.025 92.2555C204.664 91.7085 203.443 90.8257 202.363 89.607L198.3 85.0234L200.619 82.9679L204.972 87.879C205.601 88.5883 206.303 89.0869 207.077 89.3746C207.852 89.6623 208.622 89.7432 209.387 89.6171C210.17 89.4749 210.871 89.1298 211.49 88.5816C212.144 88.0013 212.599 87.3227 212.852 86.5459C213.105 85.7692 213.136 84.979 212.943 84.1754C212.751 83.3718 212.34 82.6153 211.711 81.9059L207.769 77.4586L200.021 84.3264L199.748 84.5683L191.017 92.3066L188.792 89.7965ZM198.151 100.355L202.371 88.1871L204.789 90.9155L200.739 103.275L198.151 100.355Z" fill="white"/>
<path d="M204.579 110.002L228.208 100.36L234.365 115.449L231.462 116.634L226.572 104.651L208.749 111.923L213.777 124.244L210.874 125.429L204.579 110.002ZM216.092 107.628L218.961 106.457L223.782 118.271L220.913 119.442L216.092 107.628Z" fill="white"/>
<path d="M212.544 140.859C212.436 139.088 212.681 137.527 213.281 136.175C213.88 134.824 214.764 133.747 215.932 132.945C217.1 132.143 218.458 131.646 220.005 131.454L220.21 134.802C219.195 134.937 218.326 135.258 217.602 135.765C216.904 136.295 216.373 136.972 216.01 137.798C215.67 138.623 215.535 139.593 215.603 140.709C215.672 141.825 215.898 142.748 216.284 143.48C216.671 144.235 217.18 144.788 217.81 145.14C218.44 145.491 219.132 145.643 219.884 145.597C220.805 145.541 221.541 145.228 222.091 144.659C222.666 144.112 223.1 143.44 223.392 142.643C223.71 141.869 224.059 140.8 224.438 139.438C224.872 137.78 225.313 136.426 225.76 135.376C226.207 134.326 226.87 133.421 227.749 132.661C228.652 131.899 229.856 131.472 231.36 131.38C232.694 131.299 233.902 131.542 234.984 132.108C236.067 132.7 236.949 133.583 237.63 134.759C238.311 135.935 238.701 137.348 238.802 138.998C238.903 140.647 238.652 142.112 238.048 143.39C237.445 144.669 236.569 145.685 235.422 146.437C234.276 147.213 232.966 147.683 231.49 147.846L231.286 144.498C232.229 144.392 233.039 144.099 233.716 143.619C234.418 143.162 234.941 142.545 235.283 141.77C235.651 141.017 235.805 140.155 235.746 139.185C235.686 138.214 235.464 137.375 235.08 136.668C234.698 135.986 234.204 135.48 233.6 135.152C232.995 134.824 232.317 134.682 231.565 134.728C230.691 134.782 229.991 135.068 229.462 135.587C228.935 136.131 228.524 136.777 228.229 137.526C227.96 138.297 227.648 139.363 227.293 140.724C226.858 142.382 226.418 143.749 225.973 144.823C225.551 145.896 224.866 146.827 223.915 147.615C222.989 148.402 221.738 148.844 220.161 148.941C218.778 149.025 217.533 148.773 216.426 148.183C215.318 147.593 214.422 146.674 213.737 145.425C213.052 144.177 212.654 142.655 212.544 140.859Z" fill="white"/>
<path d="M211.133 162.522L232.766 168.133L234.707 160.651L237.777 161.448L233.054 179.658L229.983 178.861L231.924 171.38L210.291 165.768L211.133 162.522Z" fill="white"/>
<path d="M207.105 176.843L223.175 198.882L221.416 201.565L194.795 195.626L196.754 192.638L204.504 194.448L205.334 194.643L219.881 197.987L219.362 198.78L210.49 186.776L209.979 186.093L205.227 179.709L207.105 176.843ZM209.63 184.164L211.563 186.869L205.747 195.742L202.496 195.05L209.63 184.164Z" fill="white"/>
<path d="M190.182 199.867L205.569 220.227L198.123 225.855C196.882 226.792 195.562 227.364 194.163 227.568C192.763 227.772 191.423 227.612 190.143 227.087C188.877 226.581 187.819 225.766 186.97 224.641C186.105 223.497 185.629 222.242 185.541 220.876C185.454 219.511 185.735 218.171 186.387 216.856C187.038 215.541 188.014 214.392 189.313 213.411L194.199 209.718L196.068 212.19L190.832 216.147C190.076 216.718 189.524 217.379 189.177 218.129C188.83 218.879 188.689 219.64 188.755 220.413C188.836 221.205 189.125 221.93 189.624 222.59C190.151 223.288 190.792 223.793 191.547 224.107C192.301 224.42 193.087 224.512 193.903 224.382C194.719 224.253 195.505 223.903 196.262 223.331L201.003 219.748L194.76 211.488L194.54 211.197L187.506 201.889L190.182 199.867ZM178.926 208.374L190.728 213.529L187.819 215.728L175.814 210.726L178.926 208.374Z" fill="white"/>
<path d="M163.709 215.634L170.756 236.842L178.091 234.405L179.091 237.415L161.239 243.347L160.238 240.337L167.573 237.9L160.526 216.692L163.709 215.634Z" fill="white"/>
</svg>
